 http://s9.postimage.org/sn8dxyqmn/fdfdfdf.png



I Do Bidoo Bidoo Heto nApo sila! [2012] DVDRip EP



info:

Imdb                             : http://www.imdb.com/title/tt2364616/
Genres                           : Comedy | Musical | Romance
Director                         : Chris Martinez
Writers                          : Chris Martinez, Apo Hiking Society
Audio Language                   : Filipino | Tagalog
Country                          : Philippines
Subtitles                        : N/A



General
Complete name                            : I Do Bidoo Bidoo Heto nApo sila! [2012] DVDRip EP.avi
Format                                   : AVI
Format/Info                              : Audio Video Interleave
File size                                : 1.72 GiB
Duration                                 : 2h 1mn
Overall bit rate                         : 2 027 Kbps


Video
ID                                       : 0
Format                                   : AVC
Format/Info                              : Advanced Video Codec
Format profile                           : High@L3.1
Format settings, CABAC                   : Yes
Format settings, ReFrames                : 3 frames
Codec ID                                 : H264
Duration                                 : 2h 1mn
Bit rate                                 : 1 887 Kbps
Width                                    : 1 280 pixels
Height                                   : 720 pixels
Display aspect ratio                     : 16:9
Frame rate                               : 29.970 fps
Color space                              : YUV
Chroma subsampling                       : 4:2:0
Bit depth                                : 8 bits
Scan type                                : Progressive
Bits/(Pixel*Frame)                       : 0.068
Stream size                              : 1.60 GiB (93%)
Writing library                          : x264 core 119 r2106kMod 07efeb4
Encoding settings                        : cabac=1 / ref=3 / deblock=1:0:0

Audio
ID                                       : 1
Format                                   : MPEG Audio
Format version                           : Version 1
Format profile                           : Layer 3
Codec ID                                 : 55
Codec ID/Hint                            : MP3
Duration                                 : 2h 1mn
Bit rate mode                            : Constant
Bit rate                                 : 128 Kbps
Channel(s)                               : 2 channels
Sampling rate                            : 48.0 KHz
Compression mode                         : Lossy
Stream size                              : 111 MiB (6%)
Alignment                                : Split accross interleaves
Interleave, duration                     : 33 ms (1.00 video frame)
Interleave, preload duration             : 500 ms




cast:



Eugene Domingo 	... 	Rosie Polotan
Gary Valenciano 	... 	Nick Fuentebella
Zsa Zsa Padilla 	... 	Elaine Fuentebella
Ogie Alcasid 	... 	Pol Polotan
Sam Concepcion 	... 	Rock Polotan
Tippy Dos Santos 	... 	Tracy Fuentebella
Sweet Plantado 	... 	Vicky
Neil Coleta 	... 	Brent
Frenchie Dy 	... 	Lilibeth (as Frenchy Dy)
Kiray Celis 	... 	Jazzy Polotan
Gerald Pesigan 	... 	Raprap Polotan
Jaime Fabregas 	... 	Gen. Julio Fuentebella
Ishmael Aldefat 	... 	Austin Fuentebella
Jm Ibañez 	... 	Blake Fuentebella (as John Mark Ibañez)
Boboy Garovillo 	... 	Baptismal sponsor 



plot:

 
Rock (Concepcion) and Tracey (Dos Santos), who are both nursing students in Manila. These two youngsters will 
have to face each other's family in the province after Tracey got accidentally pregnant by her boyfriend, Rock. 
Rock is the son of Rose (Domingo) who is a caterer, and Pol (Alcasid), a songwriter. Tracey came from a well-off family 
with Nick (Valenciano) and Elaine (Padilla) as parents. The incident prompts the bickering parents to meet and discuss 
the future of the young ones. As a result, the two lovers went home to the province and discuss about their marriage. 
The two families do not seem to agree to the plans in their own reasons. Rose thinks his son is still young for a fatherhood,
Nick thinks the family would be in shame if Tracey will raise a child with no father. Elaine, who also got pregnant 
at a young age does not want her daughter to experience a force marriage and gets trap in a loveless marriage as what 
had happened to her and his husband, Nick.




ScreenShot:
 
http://s9.postimage.org/5tffoq1xr/image.jpg 
http://s9.postimage.org/5updi53rj/image.jpg 
http://s9.postimage.org/446cgnm8f/image.jpg 
http://s9.postimage.org/r6wvftnpr/image.jpg